<?xml version="1.0" standalone="no"?>
<!DOCTYPE svg PUBLIC "-//W3C//DTD SVG 20010904//EN"
 "http://www.w3.org/TR/2001/REC-SVG-20010904/DTD/svg10.dtd">
<svg version="1.0" xmlns="http://www.w3.org/2000/svg"
 width="500.000000pt" height="500.000000pt" viewBox="0 0 500.000000 500.000000"
 preserveAspectRatio="xMidYMid meet">

<g transform="translate(0.000000,500.000000) scale(0.100000,-0.100000)"
fill="#000000" stroke="none">
<path d="M3380 4539 c-190 -32 -321 -69 -930 -262 -552 -176 -814 -268 -1080
-382 -331 -141 -599 -297 -757 -439 l-53 -48 6 -71 c4 -40 13 -85 20 -101 8
-16 13 -30 12 -31 -2 -1 -112 -57 -245 -125 -276 -139 -264 -125 -221 -237 12
-32 21 -61 20 -65 -1 -4 7 -10 18 -13 23 -7 24 -14 6 -38 -9 -12 -31 -19 -67
-22 -30 -3 -66 -7 -81 -11 l-28 -6 0 -229 c0 -228 0 -229 22 -229 l21 0 -21
-23 c-20 -21 -22 -34 -22 -149 l0 -127 58 -6 c81 -9 96 -15 83 -28 -6 -6 -11
-17 -11 -25 0 -16 23 -13 76 9 17 7 39 9 49 5 17 -6 17 -7 0 -26 -26 -29 -13
-34 32 -12 111 56 319 120 568 172 55 12 109 23 120 26 11 3 -17 -15 -63 -40
-175 -96 -361 -235 -496 -371 -77 -77 -136 -156 -136 -181 0 -6 20 -14 45 -17
26 -2 48 -7 51 -10 3 -3 -2 -22 -10 -42 -19 -45 -20 -53 -4 -37 15 15 51 15
66 0 17 -17 15 -25 -8 -31 -12 -3 -20 -14 -20 -27 0 -21 3 -22 53 -16 55 7 91
0 81 -15 -3 -5 -18 -9 -35 -9 -16 0 -29 -4 -29 -10 0 -5 7 -10 15 -10 25 0 17
-17 -16 -30 -17 -7 -38 -25 -47 -39 -9 -14 -24 -33 -33 -42 -18 -18 -39 -100
-39 -147 0 -50 11 -72 35 -72 16 0 29 -11 43 -37 15 -30 25 -38 47 -38 16 -1
30 -6 33 -13 2 -7 -5 -12 -17 -12 -11 0 -23 -5 -26 -11 -4 -6 -13 -8 -21 -5
-28 11 -40 -3 -36 -44 3 -30 9 -40 22 -40 21 0 80 -29 80 -39 0 -4 -5 -12 -11
-18 -9 -9 -2 -13 27 -18 63 -9 288 -86 297 -101 21 -36 555 10 635 55 14 8 13
10 -8 15 -14 3 -43 7 -65 9 -37 2 -33 5 60 34 106 34 456 104 615 123 259 31
409 59 450 85 5 3 31 8 55 11 25 2 58 10 74 18 42 22 359 99 516 125 33 6 120
18 193 26 86 10 147 22 172 35 20 10 40 17 43 14 7 -7 104 11 187 36 45 13 69
26 72 38 4 12 35 24 119 46 135 34 183 54 169 71 -8 9 13 17 82 30 102 20 176
43 143 45 -17 1 -15 5 15 31 49 43 137 86 192 94 41 6 47 10 50 34 2 19 14 31
46 48 24 12 38 24 32 28 -24 15 -6 33 49 48 77 22 157 84 226 175 l55 73 0
700 0 699 -60 -7 c-33 -3 -60 -2 -59 3 0 5 27 31 60 57 l59 48 0 159 0 159
-27 15 c-16 8 -39 26 -52 40 -16 17 -35 26 -56 26 -18 0 -47 5 -65 11 -25 9
-63 9 -159 -1 -161 -16 -181 -10 -179 53 1 55 -11 77 -67 123 -40 32 -45 41
-45 78 0 59 -66 171 -100 171 -18 0 -26 6 -28 23 -2 14 -10 22 -23 22 -11 0
-34 7 -51 16 -25 13 -38 14 -67 5 -20 -5 -81 -15 -136 -22 -141 -16 -412 -53
-600 -83 -217 -35 -467 -66 -518 -66 l-42 1 60 25 c33 14 191 70 351 124 160
54 320 112 357 128 l67 31 0 70 0 71 -92 -1 c-51 -1 -118 -5 -148 -10z m-1530
-673 c0 -19 -7 -65 -16 -102 -16 -71 -14 -94 10 -94 9 0 30 39 56 108 23 59
46 111 51 117 23 24 25 -23 4 -127 -23 -113 -23 -138 0 -138 12 0 40 55 87
174 29 75 52 87 45 25 -2 -24 -13 -83 -23 -131 -10 -48 -15 -90 -12 -93 16
-16 40 16 78 106 23 54 46 99 51 99 37 0 36 -248 -1 -380 -49 -173 -121 -272
-247 -339 -75 -40 -120 -83 -144 -136 -16 -36 -54 -185 -110 -425 -22 -96 -74
-273 -154 -525 -30 -93 -102 -321 -160 -505 -66 -208 -113 -342 -125 -355 -18
-17 -24 -18 -64 -7 -24 6 -69 22 -100 36 -72 32 -77 50 -41 158 125 382 392
1136 452 1278 184 431 182 421 132 567 -56 165 -41 299 53 488 48 95 146 235
165 235 8 0 13 -12 13 -34z m2161 -1066 c11 -6 19 -21 19 -35 0 -13 -34 -119
-75 -236 -42 -117 -75 -222 -73 -233 4 -31 49 -33 82 -4 15 13 41 52 60 88 29
58 36 65 62 65 28 0 29 -2 28 -42 -1 -55 -57 -147 -112 -187 -54 -39 -136 -42
-183 -7 l-31 23 -41 -23 c-51 -28 -123 -31 -161 -5 -27 17 -28 17 -74 -14 -25
-17 -62 -35 -83 -41 -33 -10 -38 -17 -59 -76 -28 -79 -71 -127 -128 -142 -110
-30 -202 44 -173 139 13 43 65 82 129 95 34 7 44 25 13 25 -10 0 -35 11 -56
25 l-37 26 -42 -21 c-131 -63 -289 -39 -347 52 -16 26 -19 46 -17 94 5 77 41
138 96 161 47 19 47 20 33 37 -17 21 -16 98 2 132 58 112 224 139 295 49 24
-30 29 -84 10 -103 -24 -24 -58 -14 -79 23 -36 61 -110 57 -127 -7 -15 -57 -1
-75 80 -107 35 -13 46 -52 24 -86 -18 -28 -50 -32 -101 -14 -48 18 -107 -13
-119 -62 -13 -52 -1 -86 36 -105 71 -37 230 11 244 74 19 81 116 337 139 368
94 123 305 82 305 -59 0 -76 -83 -89 -106 -17 -9 29 -17 36 -42 38 -56 6 -85
-35 -142 -196 -27 -79 -50 -151 -50 -160 0 -25 31 -52 59 -52 46 0 87 34 106
87 62 169 71 181 118 169 36 -9 35 -40 -4 -141 -17 -44 -37 -97 -45 -118 l-13
-37 27 14 c39 20 59 45 71 91 19 71 127 363 145 389 39 60 151 84 213 47 26
-17 32 -17 37 -5 5 13 38 32 59 33 5 1 17 -4 28 -9z m-2033 -12 c21 -21 14
-51 -59 -254 -73 -205 -81 -240 -58 -255 27 -17 52 -9 88 29 32 32 48 68 111
247 41 115 83 218 92 227 34 34 88 17 88 -28 0 -12 -34 -116 -75 -230 -42
-115 -74 -218 -73 -229 4 -30 50 -31 82 -3 15 13 41 52 60 88 26 52 38 66 59
68 29 4 49 -26 61 -90 14 -78 110 -106 167 -49 49 50 38 91 -55 206 -83 101
-84 184 -3 248 49 40 133 48 187 19 48 -26 78 -81 63 -115 -20 -42 -51 -41
-92 4 -40 43 -55 47 -83 22 -27 -24 -22 -56 17 -105 69 -86 93 -125 104 -163
19 -72 -16 -157 -83 -203 -79 -53 -198 -47 -266 14 l-37 34 -36 -34 c-63 -59
-168 -67 -222 -16 l-24 22 -28 -19 c-74 -52 -160 -51 -202 3 -42 53 -38 75 48
314 45 123 89 232 98 242 18 21 53 24 71 6z"/>
<path d="M1439 2288 c-9 -9 -74 -189 -144 -400 -98 -291 -127 -390 -122 -410
4 -16 11 -28 16 -28 5 0 26 53 46 118 20 64 79 249 131 410 53 162 94 301 92
310 -3 14 -4 14 -19 0z"/>
<path d="M1408 1998 c-53 -156 -118 -345 -144 -420 -27 -75 -46 -140 -42 -144
4 -4 18 0 30 8 23 15 56 108 220 617 53 165 63 221 39 221 -4 0 -50 -127 -103
-282z"/>
<path d="M3771 2683 c-14 -12 -41 -77 -78 -186 -62 -184 -62 -199 -4 -205 52
-5 79 34 139 205 43 121 52 155 43 171 -19 36 -66 43 -100 15z"/>
<path d="M3208 2084 c-50 -27 -58 -74 -12 -74 17 0 30 10 44 33 34 56 22 71
-32 41z"/>
</g>
</svg>
